<?xml version="1.0" encoding="UTF-8" ?>
<!DOCTYPE svg PUBLIC "-//W3C//DTD SVG 1.1//EN" "http://www.w3.org/Graphics/SVG/1.1/DTD/svg11.dtd">
<svg width="310pt" height="310pt" viewBox="0 0 310 310" version="1.1" xmlns="http://www.w3.org/2000/svg">
<g id="#000000ff">
<path fill="#000000" opacity="1.00" d=" M 0.00 0.00 L 310.00 0.00 L 310.00 310.00 L 0.00 310.00 L 0.00 0.00 M 9.12 9.00 C 9.17 23.00 8.81 37.01 9.43 51.00 C 9.68 74.33 8.59 97.65 9.29 120.98 C 9.51 166.65 9.24 212.33 9.43 258.00 C 8.89 272.29 9.07 286.59 9.17 300.89 C 22.44 300.86 35.72 301.15 48.98 300.70 C 69.66 300.46 90.33 301.08 111.01 300.94 C 136.00 300.21 161.02 300.87 186.03 300.65 C 198.01 301.12 210.00 300.85 221.99 300.94 C 248.32 299.95 274.66 301.35 300.99 300.88 C 301.72 274.59 299.86 248.31 301.13 222.04 C 300.95 210.35 301.44 198.66 300.79 186.98 C 300.87 164.65 300.62 142.31 300.74 119.98 C 301.00 105.99 300.44 91.98 301.13 78.00 C 301.11 68.67 301.10 59.34 301.12 50.02 C 300.35 36.44 300.83 22.83 300.75 9.24 C 274.16 9.38 247.56 9.06 220.96 9.28 C 209.98 9.12 198.98 9.62 188.02 8.89 C 167.34 8.89 146.67 8.91 126.00 8.88 C 101.03 9.51 76.05 9.11 51.08 9.30 C 37.11 8.61 23.10 8.89 9.12 9.00 Z" />
<path fill="#000000" opacity="1.00" d=" M 46.07 81.82 C 70.31 81.66 94.55 82.18 118.80 82.10 C 118.70 106.33 118.83 130.56 118.72 154.78 C 143.03 154.87 167.33 154.57 191.64 154.75 C 191.30 130.52 192.04 106.30 191.85 82.07 C 215.61 82.29 239.36 81.50 263.12 81.77 C 265.18 81.42 264.55 83.85 264.69 85.04 C 264.63 108.29 264.69 131.54 264.70 154.79 C 250.82 155.02 236.93 154.44 223.06 155.20 C 212.61 155.18 202.15 155.19 191.70 155.18 C 191.78 166.91 191.67 178.65 191.75 190.37 C 191.97 190.57 192.42 190.97 192.64 191.17 C 204.42 191.27 216.21 191.23 227.99 191.18 C 228.14 192.43 228.24 193.69 228.29 194.96 C 228.25 224.17 228.10 253.38 228.29 282.59 C 216.05 282.59 203.82 282.64 191.59 282.56 C 191.69 270.25 191.50 257.95 191.58 245.65 C 167.20 245.78 142.82 245.42 118.44 245.54 C 118.33 257.89 118.53 270.24 118.47 282.58 C 106.40 282.61 94.33 282.60 82.26 282.59 C 82.40 252.21 82.05 221.86 82.20 191.48 C 94.36 191.39 106.52 191.41 118.68 191.47 C 118.78 179.33 118.55 167.19 118.80 155.06 C 94.45 154.58 70.08 154.96 45.72 154.81 C 45.67 130.47 46.08 106.15 46.07 81.82 Z" />
</g>
<g id="#4ea654ff">
<path fill="#4ea654" opacity="1.00" d=" M 9.12 9.00 C 23.10 8.89 37.11 8.61 51.08 9.30 C 76.05 9.11 101.03 9.51 126.00 8.88 C 146.67 8.91 167.34 8.89 188.02 8.89 C 198.98 9.62 209.98 9.12 220.96 9.28 C 247.56 9.06 274.16 9.38 300.75 9.24 C 300.83 22.83 300.35 36.44 301.12 50.02 C 301.10 59.34 301.11 68.67 301.13 78.00 C 300.44 91.98 301.00 105.99 300.74 119.98 C 300.62 142.31 300.87 164.65 300.79 186.98 C 301.44 198.66 300.95 210.35 301.13 222.04 C 299.86 248.31 301.72 274.59 300.99 300.88 C 274.66 301.35 248.32 299.95 221.99 300.94 C 210.00 300.85 198.01 301.12 186.03 300.65 C 161.02 300.87 136.00 300.21 111.01 300.94 C 90.33 301.08 69.66 300.46 48.98 300.70 C 35.72 301.15 22.44 300.86 9.17 300.89 C 9.07 286.59 8.89 272.29 9.43 258.00 C 9.24 212.33 9.51 166.65 9.29 120.98 C 8.59 97.65 9.68 74.33 9.43 51.00 C 8.81 37.01 9.17 23.00 9.12 9.00 M 46.07 81.82 C 46.08 106.15 45.67 130.47 45.72 154.81 C 70.08 154.96 94.45 154.58 118.80 155.06 C 118.55 167.19 118.78 179.33 118.68 191.47 C 106.52 191.41 94.36 191.39 82.20 191.48 C 82.05 221.86 82.40 252.21 82.26 282.59 C 94.33 282.60 106.40 282.61 118.47 282.58 C 118.53 270.24 118.33 257.89 118.44 245.54 C 142.82 245.42 167.20 245.78 191.58 245.65 C 191.50 257.95 191.69 270.25 191.59 282.56 C 203.82 282.64 216.05 282.59 228.29 282.59 C 228.10 253.38 228.25 224.17 228.29 194.96 C 228.24 193.69 228.14 192.43 227.99 191.18 C 216.21 191.23 204.42 191.27 192.64 191.17 C 192.42 190.97 191.97 190.57 191.75 190.37 C 191.67 178.65 191.78 166.91 191.70 155.18 C 202.15 155.19 212.61 155.18 223.06 155.20 C 236.93 154.44 250.82 155.02 264.70 154.79 C 264.69 131.54 264.63 108.29 264.69 85.04 C 264.55 83.85 265.18 81.42 263.12 81.77 C 239.36 81.50 215.61 82.29 191.85 82.07 C 192.04 106.30 191.30 130.52 191.64 154.75 C 167.33 154.57 143.03 154.87 118.72 154.78 C 118.83 130.56 118.70 106.33 118.80 82.10 C 94.55 82.18 70.31 81.66 46.07 81.82 Z" />
</g>
</svg>
